<svg width="10" height="8" viewBox="0 0 10 8" fill="none" xmlns="http://www.w3.org/2000/svg">
<path d="M9.86215 0.521735C9.79278 0.439941 9.69341 0.393188 9.58927 0.393188H7.65774V1.41883C7.65774 1.89011 7.25359 2.27353 6.75684 2.27353C6.26008 2.27353 5.85593 1.89011 5.85593 1.41883V0.393188H4.05413V1.41883C4.05413 1.89011 3.64999 2.27353 3.15323 2.27353C2.65648 2.27353 2.25233 1.89011 2.25233 1.41883V0.393188H0.32089C0.216656 0.393188 0.117286 0.439941 0.0479169 0.521735C-0.0215425 0.60353 -0.0544254 0.71259 -0.0425335 0.821479L0.605665 6.78464C0.617737 7.45695 1.14179 8.00002 1.78431 8.00002H8.12584C8.76828 8.00002 9.29233 7.45695 9.30449 6.78455L9.95269 0.821393C9.96449 0.71259 9.93161 0.60353 9.86215 0.521735Z" fill="#FFC600"/>
</svg>
